<?xml version="1.0" encoding="utf-8"?>
<!-- Generator: Adobe Illustrator 19.0.0, SVG Export Plug-In . SVG Version: 6.00 Build 0)  -->
<svg version="1.1" id="Layer_1" xmlns="http://www.w3.org/2000/svg" xmlns:xlink="http://www.w3.org/1999/xlink" x="0px" y="0px"
	 viewBox="0 0 585.4 585.4" style="enable-background:new 0 0 585.4 585.4;" xml:space="preserve">
<style type="text/css">
	.st0{fill:#36A9E1;}
</style>
<g id="XMLID_391_">
	<rect id="XMLID_392_" x="-1093.9" y="-98.9" class="st0" width="841.9" height="595.3"/>
	<g id="XMLID_393_">
		<g id="XMLID_394_">
			<path id="XMLID_514_" d="M-755.6,114.3v25.6l-49.9,25.4l49.9,25.4v25.1L-829,176v-22.1L-755.6,114.3z"/>
			<path id="XMLID_516_" d="M-698.6,91.1h30.3v113.8c0,19.1-9,28.6-26.9,28.6h-25.1c-17.9,0-26.9-9.5-26.9-28.6v-17.6h28.8v21
				c0,1.2,0.4,2.2,1.2,3c0.8,0.9,1.8,1.3,2.9,1.3h11.5c1.2,0,2.1-0.4,2.9-1.3c0.8-0.9,1.2-1.9,1.2-3V91.1z"/>
			<path id="XMLID_518_" d="M-608.8,85.2h23.2L-647,246.9h-23.2L-608.8,85.2z"/>
			<path id="XMLID_520_" d="M-587,139.8v-25.6l73.5,39.7V176l-73.5,39.7v-25.1l49.9-25.4L-587,139.8z"/>
		</g>
		<g id="XMLID_395_">
			<path id="XMLID_465_" d="M-879.7,265.7c0.4,0,0.7,0.3,0.7,0.7v32.4c0,0.4-0.3,0.7-0.7,0.7h-4.4c-0.5,0-0.7-0.3-0.7-0.7v-32.4
				c0-0.4,0.2-0.7,0.7-0.7H-879.7z"/>
			<path id="XMLID_467_" d="M-851.6,269.9c0.5,0,0.8,0.3,0.8,0.8v27.8c0,0.5-0.3,0.8-0.8,0.8h-3.9c-0.5,0-0.8-0.3-0.8-0.8V282h-0.3
				l-4,16.7c-0.1,0.5-0.4,0.7-0.9,0.7h-2.5c-0.5,0-0.8-0.3-0.9-0.7l-4-16.7h-0.3v16.6c0,0.5-0.3,0.8-0.8,0.8h-3.9
				c-0.5,0-0.8-0.3-0.8-0.8v-27.8c0-0.5,0.3-0.8,0.8-0.8h5.6c0.5,0,0.8,0.3,0.9,0.7l4.7,18.8l4.7-18.8c0.1-0.5,0.4-0.7,0.9-0.7
				H-851.6z"/>
			<path id="XMLID_469_" d="M-846.6,270.5c0-0.4,0.3-0.7,0.7-0.7h10.1c4,0,6.1,2.1,6.1,6.1v8.3c0,3.9-2.1,6-6.1,6.1l-5.3,0v8.4
				c0,0.4-0.2,0.7-0.7,0.7l-4.1,0c-0.4,0-0.7-0.3-0.7-0.7V270.5z M-836.9,284.8c1.1,0,1.7-0.6,1.7-1.7V277c0-1.1-0.5-1.7-1.7-1.7
				l-4.2,0v9.5L-836.9,284.8z"/>
			<path id="XMLID_472_" d="M-809.5,269.9c0.5,0,0.8,0.4,0.8,0.8v22.6c0,4-2.1,6.1-6.1,6.1h-4.7c-4,0-6.1-2.1-6.1-6.1v-22.6
				c0-0.5,0.4-0.8,0.8-0.8h4c0.5,0,0.8,0.4,0.8,0.8v21.4c0,1.1,0.6,1.7,1.7,1.7h2.2c1.1,0,1.7-0.5,1.7-1.7v-21.4
				c0-0.5,0.4-0.8,0.8-0.8H-809.5z"/>
			<path id="XMLID_474_" d="M-798.7,293.8h8.3c0.5,0,0.7,0.3,0.7,0.7v4.2c0,0.5-0.2,0.7-0.7,0.7h-13.4c-0.4,0-0.7-0.2-0.7-0.7v-28.2
				c0-0.4,0.3-0.7,0.7-0.7h4.4c0.5,0,0.7,0.3,0.7,0.7V293.8z"/>
			<path id="XMLID_476_" d="M-776.8,269.9c4,0,6.1,2.1,6.1,6.1v2.8c0,0.4-0.2,0.7-0.7,0.7h-4.3c-0.4,0-0.7-0.3-0.7-0.7V277
				c0-1.1-0.5-1.7-1.7-1.7h-2.3c-1.1,0-1.7,0.6-1.7,1.7v3.6l10.2,3.3c0.7,0.3,1.1,0.8,1.1,1.6v7.9c0,4-2.1,6.1-6.1,6.1h-4.7
				c-3.9,0-6.1-2.1-6.1-6.1v-2.7c0-0.5,0.3-0.7,0.7-0.7h4.3c0.5,0,0.7,0.2,0.7,0.7v1.8c0,1.1,0.6,1.7,1.7,1.7h2.3
				c1.1,0,1.7-0.5,1.7-1.7v-4.3l-10.1-3.3c-0.8-0.3-1.1-0.8-1.1-1.6v-7.3c0-4,2.1-6.1,6.1-6.1H-776.8z"/>
			<path id="XMLID_478_" d="M-765.8,299.4c-0.5,0-0.7-0.3-0.7-0.7v-28.2c0-0.4,0.2-0.7,0.7-0.7h4.4c0.4,0,0.7,0.3,0.7,0.7v28.2
				c0,0.4-0.3,0.7-0.7,0.7H-765.8z"/>
			<path id="XMLID_480_" d="M-739.1,269.9c0.6,0,0.9,0.3,0.8,0.9l-6.7,27.8c-0.1,0.5-0.4,0.8-0.9,0.8h-4.2c-0.5,0-0.8-0.3-0.9-0.8
				l-6.7-27.8c-0.1-0.6,0.1-0.9,0.8-0.9h3.8c0.5,0,0.8,0.3,0.9,0.8l4.2,19l4.2-19c0.1-0.5,0.4-0.8,0.9-0.8H-739.1z"/>
			<path id="XMLID_482_" d="M-718.6,274.8c0,0.4-0.2,0.7-0.7,0.7h-10.4v6.5h7.9c0.4,0,0.7,0.3,0.7,0.7v4.2c0,0.5-0.3,0.7-0.7,0.7
				h-7.9v6.2h10.4c0.5,0,0.7,0.2,0.7,0.7v4.2c0,0.4-0.2,0.7-0.7,0.7h-15.5c-0.4,0-0.6-0.3-0.6-0.7v-28.2c0-0.4,0.3-0.7,0.6-0.7h15.5
				c0.5,0,0.7,0.3,0.7,0.7V274.8z"/>
			<path id="XMLID_484_" d="M-703.8,270.5c0-0.4,0.3-0.7,0.7-0.7h10.1c4,0,6.1,2.1,6.1,6.1v8.3c0,3.9-2.1,6-6.1,6.1l-5.3,0v8.4
				c0,0.4-0.2,0.7-0.7,0.7l-4.1,0c-0.4,0-0.7-0.3-0.7-0.7V270.5z M-694.1,284.8c1.1,0,1.7-0.6,1.7-1.7V277c0-1.1-0.5-1.7-1.7-1.7
				l-4.2,0v9.5L-694.1,284.8z"/>
			<path id="XMLID_487_" d="M-665.9,284.4c0,2.4-0.8,4.2-2.4,5.1l2.2,9.1c0.1,0.5-0.1,0.8-0.6,0.8h-4.1c-0.4,0-0.6-0.2-0.7-0.6
				l-2-8.3h-3.8v8.2c0,0.4-0.3,0.7-0.7,0.7h-4.1c-0.4,0-0.7-0.3-0.7-0.7v-28.2c0-0.4,0.3-0.7,0.7-0.7h10.1c4,0,6.1,2.1,6.1,6.1
				V284.4z M-673,285c1.1,0,1.7-0.6,1.7-1.7V277c0-1.1-0.6-1.7-1.7-1.7h-4.2v9.7H-673z"/>
			<path id="XMLID_490_" d="M-661.7,275.9c0-4,2.1-6.1,6.1-6.1h4.7c4,0,6.1,2.1,6.1,6.1v17.4c0,4-2.1,6.1-6.1,6.1h-4.7
				c-4,0-6.1-2.1-6.1-6.1V275.9z M-651.8,293.9c1.1,0,1.7-0.5,1.7-1.7V277c0-1.1-0.6-1.7-1.7-1.7h-2.7c-1.1,0-1.7,0.6-1.7,1.7v15.3
				c0,1.1,0.6,1.7,1.7,1.7H-651.8z"/>
			<path id="XMLID_493_" d="M-640.6,275.9c0-4,2.1-6.1,6.1-6.1h4.7c3.9,0,6.1,2.1,6.1,6.1v3.1c0,0.4-0.3,0.7-0.7,0.7h-4
				c-0.5,0-0.7-0.3-0.7-0.7V277c0-1.1-0.6-1.7-1.7-1.7h-2.7c-1.1,0-1.7,0.6-1.7,1.7v15.3c0,1.1,0.6,1.7,1.7,1.7h2.7
				c1.1,0,1.7-0.5,1.7-1.7v-3.7h-2.2c-0.5,0-0.7-0.3-0.7-0.7v-4.2c0-0.5,0.2-0.7,0.7-0.7h6.8c0.4,0,0.7,0.2,0.7,0.7v9.6
				c0,4-2.1,6.1-6.1,6.1h-4.7c-4,0-6.1-2.1-6.1-6.1V275.9z"/>
			<path id="XMLID_495_" d="M-602.7,284.4c0,2.4-0.8,4.2-2.4,5.1l2.2,9.1c0.1,0.5-0.1,0.8-0.6,0.8h-4.1c-0.4,0-0.6-0.2-0.7-0.6
				l-2-8.3h-3.8v8.2c0,0.4-0.3,0.7-0.7,0.7h-4.1c-0.4,0-0.7-0.3-0.7-0.7v-28.2c0-0.4,0.3-0.7,0.7-0.7h10.1c4,0,6.1,2.1,6.1,6.1
				V284.4z M-609.8,285c1.1,0,1.7-0.6,1.7-1.7V277c0-1.1-0.6-1.7-1.7-1.7h-4.2v9.7H-609.8z"/>
			<path id="XMLID_498_" d="M-583.5,299.4c-0.4,0-0.6-0.2-0.7-0.6l-1.3-5.3h-7.9l-1.3,5.3c-0.1,0.4-0.3,0.6-0.7,0.6h-4.1
				c-0.5,0-0.7-0.3-0.5-0.7l7-28.2c0.1-0.4,0.3-0.6,0.7-0.6h5.9c0.4,0,0.6,0.2,0.7,0.6l7,28.2c0.1,0.5-0.1,0.7-0.6,0.7H-583.5z
				 M-589.5,277.1l-2.7,11.5h5.3L-589.5,277.1z"/>
			<path id="XMLID_501_" d="M-553.1,269.9c0.5,0,0.8,0.3,0.8,0.8v27.8c0,0.5-0.3,0.8-0.8,0.8h-3.9c-0.5,0-0.8-0.3-0.8-0.8V282h-0.3
				l-4,16.7c-0.1,0.5-0.4,0.7-0.9,0.7h-2.5c-0.5,0-0.8-0.3-0.9-0.7l-4-16.7h-0.3v16.6c0,0.5-0.3,0.8-0.8,0.8h-3.9
				c-0.5,0-0.8-0.3-0.8-0.8v-27.8c0-0.5,0.3-0.8,0.8-0.8h5.6c0.5,0,0.8,0.3,0.9,0.7l4.7,18.8l4.7-18.8c0.1-0.5,0.4-0.7,0.9-0.7
				H-553.1z"/>
			<path id="XMLID_503_" d="M-525.2,269.9c0.5,0,0.8,0.3,0.8,0.8v27.8c0,0.5-0.3,0.8-0.8,0.8h-3.9c-0.5,0-0.8-0.3-0.8-0.8V282h-0.3
				l-4,16.7c-0.1,0.5-0.4,0.7-0.9,0.7h-2.5c-0.5,0-0.8-0.3-0.9-0.7l-4-16.7h-0.3v16.6c0,0.5-0.3,0.8-0.8,0.8h-3.9
				c-0.5,0-0.8-0.3-0.8-0.8v-27.8c0-0.5,0.3-0.8,0.8-0.8h5.6c0.5,0,0.8,0.3,0.9,0.7l4.7,18.8l4.7-18.8c0.1-0.5,0.4-0.7,0.9-0.7
				H-525.2z"/>
			<path id="XMLID_505_" d="M-519.5,299.4c-0.5,0-0.7-0.3-0.7-0.7v-28.2c0-0.4,0.2-0.7,0.7-0.7h4.4c0.4,0,0.7,0.3,0.7,0.7v28.2
				c0,0.4-0.3,0.7-0.7,0.7H-519.5z"/>
			<path id="XMLID_507_" d="M-492.9,269.9c0.4,0,0.7,0.3,0.7,0.7v28.2c0,0.4-0.3,0.7-0.7,0.7h-3.3c-0.4,0-0.6-0.2-0.8-0.5l-7.9-16.1
				v16c0,0.4-0.2,0.7-0.7,0.7h-4c-0.4,0-0.7-0.3-0.7-0.7v-28.2c0-0.4,0.3-0.7,0.7-0.7h3.3c0.4,0,0.6,0.2,0.8,0.5l7.9,16.1v-16
				c0-0.4,0.2-0.7,0.7-0.7H-492.9z"/>
			<path id="XMLID_509_" d="M-488,275.9c0-4,2.1-6.1,6.1-6.1h4.7c3.9,0,6.1,2.1,6.1,6.1v3.1c0,0.4-0.3,0.7-0.7,0.7h-4
				c-0.5,0-0.7-0.3-0.7-0.7V277c0-1.1-0.6-1.7-1.7-1.7h-2.7c-1.1,0-1.7,0.6-1.7,1.7v15.3c0,1.1,0.6,1.7,1.7,1.7h2.7
				c1.1,0,1.7-0.5,1.7-1.7v-3.7h-2.2c-0.5,0-0.7-0.3-0.7-0.7v-4.2c0-0.5,0.2-0.7,0.7-0.7h6.8c0.4,0,0.7,0.2,0.7,0.7v9.6
				c0,4-2.1,6.1-6.1,6.1h-4.7c-4,0-6.1-2.1-6.1-6.1V275.9z"/>
			<path id="XMLID_511_" d="M-461.9,265.7c0.4,0,0.7,0.3,0.7,0.7l-0.3,23c0,0.4-0.3,0.7-0.7,0.7h-4c-0.5,0-0.7-0.3-0.7-0.7l-0.3-23
				c0-0.4,0.2-0.7,0.7-0.7H-461.9z M-467,294.7c0-0.5,0.3-0.8,0.8-0.8h3.8c0.5,0,0.8,0.3,0.8,0.8v3.9c0,0.5-0.3,0.8-0.8,0.8h-3.8
				c-0.5,0-0.8-0.3-0.8-0.8V294.7z"/>
		</g>
	</g>
</g>
<g id="XMLID_396_">
	<rect id="XMLID_397_" x="-1093.9" y="763" class="st0" width="841.9" height="595.3"/>
	<g id="XMLID_398_">
		<g id="XMLID_399_">
			<path id="XMLID_457_" d="M-755.6,1011.6v25.6l-49.9,25.4l49.9,25.4v25.1l-73.5-39.7v-22.1L-755.6,1011.6z"/>
			<path id="XMLID_459_" d="M-698.6,988.4h30.3v113.8c0,19.1-9,28.6-26.9,28.6h-25.1c-17.9,0-26.9-9.5-26.9-28.6v-17.6h28.8v21
				c0,1.2,0.4,2.2,1.2,3c0.8,0.9,1.8,1.3,2.9,1.3h11.5c1.2,0,2.1-0.4,2.9-1.3c0.8-0.9,1.2-1.9,1.2-3V988.4z"/>
			<path id="XMLID_461_" d="M-608.8,982.6h23.2l-61.3,161.7h-23.2L-608.8,982.6z"/>
			<path id="XMLID_463_" d="M-587,1037.2v-25.6l73.5,39.7v22.1L-587,1113v-25.1l49.9-25.4L-587,1037.2z"/>
		</g>
	</g>
</g>
<g id="XMLID_400_">
	<circle id="XMLID_401_" class="st0" cx="292.7" cy="292.7" r="292.7"/>
	<g id="XMLID_402_">
		<g id="XMLID_403_">
			<path id="XMLID_449_" d="M141.9,218v39L66,295.6l75.9,38.6v38.3L30,312.1v-33.7L141.9,218z"/>
			<path id="XMLID_451_" d="M241,182.7h46.2V356c0,29.1-13.6,43.6-40.9,43.6h-38.3c-27.3,0-40.9-14.5-40.9-43.6v-26.7h43.9v32
				c0,1.8,0.6,3.3,1.8,4.6c1.2,1.3,2.7,2,4.5,2h17.5c1.8,0,3.2-0.7,4.5-2c1.2-1.3,1.8-2.9,1.8-4.6V182.7z"/>
			<path id="XMLID_453_" d="M389.9,173.8h35.3l-93.4,246.3h-35.3L389.9,173.8z"/>
			<path id="XMLID_455_" d="M441.7,257v-39l111.9,60.4v33.7l-111.9,60.4v-38.3l75.9-38.6L441.7,257z"/>
		</g>
	</g>
</g>
<g id="XMLID_448_">
</g>
<g id="XMLID_522_">
</g>
<g id="XMLID_523_">
</g>
<g id="XMLID_524_">
</g>
<g id="XMLID_525_">
</g>
<g id="XMLID_526_">
</g>
</svg>
